<mxfile host="app.diagrams.net" modified="2022-03-03T07:40:53.700Z" agent="5.0 (Windows)" etag="HcIft39ZsYljILC_jETa" version="16.6.4" type="github">
  <diagram id="hKVnMnrPsSoOQpIfv5ER" name="Page-1">
    <mxGraphModel dx="1016" dy="604" grid="1" gridSize="10" guides="1" tooltips="1" connect="1" arrows="1" fold="1" page="1" pageScale="1" pageWidth="850" pageHeight="1100" math="0" shadow="0">
      <root>
        <mxCell id="0" />
        <mxCell id="1" parent="0" />
        <mxCell id="NhhzwDI5GdOOEPhdxleu-2" value="Product" style="whiteSpace=wrap;html=1;align=center;" parent="1" vertex="1">
          <mxGeometry x="180" y="60" width="100" height="40" as="geometry" />
        </mxCell>
        <mxCell id="NhhzwDI5GdOOEPhdxleu-3" value="Emptie" style="whiteSpace=wrap;html=1;align=center;" parent="1" vertex="1">
          <mxGeometry x="180" y="240" width="100" height="40" as="geometry" />
        </mxCell>
        <mxCell id="NhhzwDI5GdOOEPhdxleu-4" value="Wrapped" style="shape=rhombus;perimeter=rhombusPerimeter;whiteSpace=wrap;html=1;align=center;" parent="1" vertex="1">
          <mxGeometry x="190" y="150" width="100" height="50" as="geometry" />
        </mxCell>
        <mxCell id="NhhzwDI5GdOOEPhdxleu-6" value="Entity" style="whiteSpace=wrap;html=1;align=center;" parent="1" vertex="1">
          <mxGeometry x="350" y="60" width="100" height="40" as="geometry" />
        </mxCell>
      </root>
    </mxGraphModel>
  </diagram>
</mxfile>
